<svg xmlns="http://www.w3.org/2000/svg" version="1.1" xmlns:xlink="http://www.w3.org/1999/xlink" width="1000" height="1000"><g clip-path="url(#SvgjsClipPath1095)"><rect width="1000" height="1000" fill="#ffffff"></rect><g transform="matrix(18.75,0,0,18.75,50,50)"><svg xmlns="http://www.w3.org/2000/svg" version="1.1" xmlns:xlink="http://www.w3.org/1999/xlink" width="48px" height="48px"><svg xmlns="http://www.w3.org/2000/svg" xml:space="preserve" width="48px" height="48px" version="1.1" style="shape-rendering:geometricPrecision; text-rendering:geometricPrecision; image-rendering:optimizeQuality; fill-rule:evenodd; clip-rule:evenodd" viewBox="0 0 48 48" xmlns:xlink="http://www.w3.org/1999/xlink" xmlns:xodm="http://www.corel.com/coreldraw/odm/2003">
 <defs>
  <style type="text/css">
   
    .fil0 {fill:#1D2029;fill-rule:nonzero}
    .fil1 {fill:#BD9648;fill-rule:nonzero}
   
  </style>
 <clipPath id="SvgjsClipPath1095"><rect width="1000" height="1000" x="0" y="0" rx="500" ry="500"></rect></clipPath></defs>
 <g id="Layer_x0020_1">
  <metadata id="CorelCorpID_0Corel-Layer"></metadata>
  <g id="OBJECTS">
   <g>
    <g>
     <path class="fil0" d="M40.88 30.82c0.13,-0.1 0.24,-0.2 0.33,-0.31 0.94,-0.66 1.15,-1.82 1.11,-2.27 -0.02,-0.24 -0.22,-1.22 -0.33,-2.35 -0.07,-0.75 0.05,-1.6 -0.27,-2.24 -0.4,-0.79 -1.12,-0.82 -1.3,-1.02 -3.69,-4.17 -5.89,-3.82 -7.16,-3.88 -0.41,-0.01 -9.48,-0.07 -11.71,0.08 -1.17,0.07 -2.09,0.22 -2.87,0.45 2.36,-0.14 8.68,-0.05 11.02,0 0.72,0.02 0.53,0.35 0.37,0.59 -0.94,1.4 -2,2.66 -2.98,3.62 -0.39,0.37 -0.86,0.69 -1.49,0.7 0,0 -2.18,0.3 -8.48,0.22 -3.35,-0.04 -5.06,-0.03 -5.82,-0.01 -0.28,0.08 -4.17,1.23 -5.83,2.34 -0.08,0.05 -0.15,0.11 -0.22,0.16 0.57,0.22 1.15,0.6 1.48,0.84 0.01,0.01 0.03,0.02 0.04,0.03 0.06,0.04 0.12,0.09 0.18,0.14 0.04,0.04 0.07,0.06 0.07,0.06 -0.01,-0.01 -0.01,-0.01 -0.01,-0.01 0.08,0.07 0.15,0.14 0.22,0.21 0.04,0.04 0.07,0.07 0.09,0.1 0.05,0.06 0.09,0.13 0.11,0.19l0.39 0.03 0.14 0.01c0.02,-0.05 0.05,-0.11 0.07,-0.17 0.23,-0.48 0.59,-1.18 0.87,-1.33 0.44,-0.25 3.07,-1.32 3.07,-1.32 0,0 -2.11,1.22 -2.5,1.43 -0.2,0.11 -0.35,0.55 -0.44,0.95 -0.04,0.19 -0.08,0.38 -0.1,0.51l0.08 0 1.18 0.09 0.01 0 1.28 -0.05 0.58 -0.02c0.04,-0.09 0.09,-0.21 0.16,-0.35 0.17,-0.37 0.42,-0.83 0.64,-1.09 0.07,-0.07 0.13,-0.12 0.18,-0.15 0.44,-0.25 3.67,-1.57 3.67,-1.57 0,0 -2.22,1.21 -2.93,1.59 -0.08,0.04 -0.13,0.07 -0.17,0.09 -0.3,0.15 -0.47,1.01 -0.53,1.44l2.41 -0.1c0.06,-0.05 0.11,-0.1 0.17,-0.14 0.04,-0.04 0.09,-0.08 0.13,-0.11 0.1,-0.07 0.2,-0.14 0.36,-0.24 -0.01,0 -0.02,0 -0.02,0.01 0,0 0.03,-0.03 0.1,-0.06 0.08,-0.05 0.16,-0.1 0.24,-0.14 0.02,-0.01 0.04,-0.02 0.06,-0.03 0.47,-0.24 1.27,-0.62 2.08,-0.84 0.13,-0.03 0.26,-0.06 0.39,-0.09 0.06,-0.01 0.11,-0.02 0.17,-0.03 0.92,-0.15 1.67,-0.23 2.25,-0.25 0.41,-0.01 0.74,0.02 0.96,0.07 0.17,0.05 0.28,0.11 0.34,0.19 0.23,0.3 0.09,0.98 -0.47,1.43 0.2,-0.36 0.22,-0.75 0.07,-0.96 -0.01,-0.01 -0.01,-0.01 -0.02,-0.02 -0.11,0.26 -0.4,0.83 -0.88,0.94 -0.25,0.06 -1.3,0.12 -1.64,0.18 -0.33,0.05 -0.8,-0.27 -0.8,-0.27 -0.11,0.15 -0.38,0.43 -0.59,0.54 -0.19,0.1 -1.32,0.18 -1.8,0.15l-1.15 0.07 -0.04 0 -2.42 0.05 -0.69 0.01 -0.81 0.02 -0.49 0.01 -0.89 0.01 -0.15 0 -1.42 -0.06 -1.06 -0.05 -0.11 0 -1.06 -0.05 0.02 -0.01c-0.37,-0.01 -0.85,-0.08 -0.95,-0.15 -0.15,-0.11 -0.34,-0.39 -0.41,-0.54 0,0 -0.33,0.32 -0.57,0.27 -0.06,-0.02 -0.16,-0.03 -0.27,-0.05 -0.09,0.19 -0.16,0.4 -0.22,0.64 -0.1,0.38 -0.18,0.83 -0.23,1.36 -0.06,0.7 0.01,1.29 0.18,1.78 0.19,0.03 0.83,0.06 1.06,-0.75 0.2,-0.68 0.67,-0.94 1.54,-1.05 0.09,-0.01 0.19,-0.02 0.29,-0.03 0.5,-0.04 1.11,-0.04 1.85,-0.05 0.23,0 0.47,0 0.73,-0.01 0.17,0 0.34,0 0.52,0l0.03 -0.01c0.05,0 0.09,0 0.14,0 0.11,0 0.22,0 0.32,0 0.19,-0.01 0.37,-0.01 0.55,-0.01 0.2,-0.01 0.4,-0.01 0.6,-0.01 0.2,0 0.4,-0.01 0.59,-0.01 0.07,0 0.14,0 0.21,0 0.29,0 0.58,0 0.86,0 0.05,0 0.1,0 0.15,0 0.12,0 0.23,0 0.34,0.01 1.35,0.02 2.48,0.1 3.16,0.32 0.13,0.04 0.25,0.09 0.35,0.14 0.33,0.18 0.64,0.41 0.94,0.62 0.59,0.43 1.14,0.83 1.77,0.85 0.57,0.02 1.36,0.04 1.94,0.06 0.44,0.01 0.76,0.02 0.77,0.02 0,0 -0.33,0.04 -0.76,0.1 -0.73,0.1 -1.75,0.23 -1.97,0.22 -0.74,-0.02 -1.38,-0.48 -1.99,-0.92 -0.29,-0.21 -0.59,-0.42 -0.89,-0.59 -0.36,-0.2 -1.04,-0.31 -1.92,-0.37 -0.39,-0.02 -0.82,-0.04 -1.28,-0.05 -0.1,0 -0.21,0 -0.31,0 -0.07,0 -0.14,0 -0.21,0 -0.26,-0.01 -0.53,-0.01 -0.8,-0.01 -0.02,0 -0.05,0 -0.07,0.01 -0.29,0 -0.58,0 -0.88,0 -0.29,0.01 -0.59,0.01 -0.88,0.02 -0.14,0 -0.27,0 -0.41,0 -0.1,0.01 -0.21,0.01 -0.31,0.01l-0.01 0 -0.03 0c-0.22,0 -0.43,0.01 -0.63,0.01 -0.22,0 -0.42,0 -0.62,0.01 -0.85,0 -1.48,0.01 -1.96,0.06 -0.26,0.03 -0.48,0.07 -0.65,0.12 -0.38,0.12 -0.58,0.32 -0.68,0.66 -0.01,0.03 -0.02,0.07 -0.03,0.1 -0.06,0.17 -0.14,0.32 -0.23,0.44 -0.17,0.22 -0.37,0.35 -0.58,0.43 -0.15,0.05 -0.29,0.07 -0.43,0.08 -0.12,0 -0.23,-0.01 -0.32,-0.03l0.04 -0.17c-1.19,0.32 -2.07,0.67 -2.57,1.02 -2.52,1.79 5.37,3.24 17.62,3.24 12.25,0 24.22,-1.45 26.74,-3.24 1.43,-1.01 -0.49,-1.92 -4.66,-2.51zm-0.39 0.26c-0.29,0.75 -0.79,1.25 -1.36,1.25 -0.05,0 -0.1,-0.01 -0.14,-0.02 -0.27,-0.03 -0.51,-0.18 -0.73,-0.4 -0.29,-0.31 -0.51,-0.77 -0.64,-1.32 0.2,0.61 0.54,1.06 0.94,1.24 0.12,0.06 0.26,0.1 0.39,0.1 0.01,0 0.03,-0.01 0.04,-0.01 0.33,-0.01 0.64,-0.21 0.89,-0.54 0.14,-0.18 0.26,-0.4 0.35,-0.65 0.16,-0.41 0.25,-0.9 0.25,-1.42 0,-0.71 -0.16,-1.36 -0.43,-1.83 0.41,0.48 0.69,1.28 0.69,2.18 0,0.4 -0.06,0.78 -0.15,1.12 -0.03,0.1 -0.07,0.21 -0.1,0.3zm-1.5 -0.1c-0.26,0 -0.49,-0.18 -0.66,-0.46 -0.02,-0.02 -0.03,-0.05 -0.04,-0.08 0.02,0.03 0.05,0.06 0.08,0.09 0.14,0.13 0.31,0.2 0.48,0.2 0.05,0 0.09,-0.01 0.14,-0.02 0.08,-0.02 0.16,-0.05 0.23,-0.1 0.36,-0.23 0.62,-0.81 0.62,-1.49 0,-0.11 -0.01,-0.21 -0.02,-0.32 0.06,0.2 0.09,0.42 0.09,0.65 0,0.49 -0.14,0.92 -0.36,1.2 -0.15,0.21 -0.35,0.33 -0.56,0.33zm2 -1.45c0.04,-0.49 0.05,-1.03 -0.03,-1.53 -0.09,-0.56 -0.29,-1.08 -0.7,-1.47 -0.43,-0.4 -1.1,-0.53 -1.78,-0.08 -0.22,0.14 -0.43,0.33 -0.64,0.59 -0.03,0.03 -0.06,0.07 -0.09,0.11 -0.01,0.02 -0.03,0.05 -0.04,0.07 -0.37,0.64 -0.58,1.86 -0.67,2.67 -0.03,0.2 -0.05,0.38 -0.06,0.52 -0.02,0.15 -0.02,0.24 -0.02,0.24 0,0 -0.02,-0.09 -0.03,-0.25 -0.05,-0.49 -0.15,-1.63 -0.02,-2.58 0.02,-0.14 0.04,-0.27 0.07,-0.4 0.07,-0.34 0.18,-0.63 0.3,-0.87l-1.36 0.34 -6.78 1.69c0.22,0.38 0.38,0.85 0.42,1.44 0.01,0.03 0.01,0.06 0.01,0.09 0.02,0.41 0.01,0.8 -0.03,1.14 -0.03,0.23 -0.06,0.44 -0.09,0.6l0.12 -0.51 0 0 5.47 -0.79 0.28 -0.05 -0.27 0.09 -5.3 1.58 -0.4 0.12c0.1,-0.39 0.14,-0.82 0.13,-1.24 -0.01,-0.32 -0.04,-0.65 -0.1,-0.95 -0.14,-0.63 -0.4,-1.17 -0.77,-1.43 -0.25,-0.18 -0.61,-0.31 -1.02,-0.38 -0.26,-0.04 -0.54,-0.05 -0.82,-0.03 -0.48,0.04 -0.97,0.2 -1.39,0.51 -0.16,0.12 -0.3,0.26 -0.43,0.42 -0.02,0.02 -0.03,0.04 -0.05,0.06 -0.19,0.26 -0.35,0.56 -0.47,0.88 -0.26,0.71 -0.36,1.57 -0.39,2.54 0,0 -0.18,-0.98 -0.12,-1.98 0.01,-0.18 0.03,-0.37 0.06,-0.54 0.02,-0.12 0.05,-0.24 0.08,-0.34 0.22,-0.81 0.55,-1.37 0.93,-1.75 0.67,-0.66 1.52,-0.78 2.37,-0.67 0.42,0.05 0.84,0.22 1.21,0.51l8.88 -1.65c0.45,-0.65 1.1,-0.85 1.82,-0.81 0.78,0.06 1.46,0.69 1.68,1.78 0.08,0.42 0.11,0.85 0.11,1.23 0,0.62 -0.07,1.08 -0.07,1.08zm-12.28 4.03c-0.33,1.05 -1,1.76 -1.76,1.76 -0.06,0 -0.12,0 -0.18,-0.01 -0.55,-0.08 -1.03,-0.53 -1.36,-1.2 -0.14,-0.28 -0.25,-0.6 -0.32,-0.94 0.11,0.35 0.26,0.66 0.44,0.92 0.33,0.46 0.75,0.74 1.2,0.74 0.02,0 0.03,-0.01 0.04,-0.01 0.57,-0.02 1.08,-0.47 1.42,-1.17 0.27,-0.56 0.43,-1.28 0.43,-2.06 0,-0.54 -0.08,-1.05 -0.21,-1.49 -0.09,-0.28 -0.2,-0.54 -0.32,-0.77 0.18,0.21 0.34,0.47 0.47,0.77 0.24,0.54 0.38,1.21 0.38,1.93 0,0.55 -0.09,1.07 -0.23,1.53zm-2.1 -0.21c0.05,0 0.11,-0.01 0.16,-0.02 0.6,-0.14 1.06,-0.96 1.06,-1.96 0,-0.14 -0.01,-0.27 -0.03,-0.4 0.07,0.24 0.11,0.51 0.11,0.8 0,1.04 -0.51,1.89 -1.14,1.89 -0.34,0 -0.65,-0.26 -0.86,-0.67 0.2,0.23 0.44,0.36 0.7,0.36zm4.23 -13.2c0.3,-0.56 1.07,-0.92 1.51,-0.92l0.84 0c0,0 1.05,-0.03 1.39,0.02 2.2,0.32 4.25,2.79 4.36,3.09 0.14,0.36 0.16,0.53 -0.43,0.65l-8.84 1.01c-0.07,0 -0.13,-0.01 -0.18,-0.04 0.14,-0.08 0.28,-0.16 0.41,-0.21 0.47,-0.19 2.57,-0.28 2.88,-0.41 0.6,-0.25 0.69,-0.82 0.57,-1.23 -0.12,-0.41 -1.03,-0.54 -1.79,-0.54 -0.76,0.01 -1.02,0.32 -1.42,0.8 -0.16,0.19 -0.33,0.37 -0.51,0.52 0.49,-1.3 0.8,-2 1.21,-2.74zm-17.29 13.83c-0.1,0 -0.2,0 -0.29,0 -0.19,0 -0.37,0 -0.54,0 -0.43,-0.01 -0.84,-0.01 -1.24,-0.01 -0.46,0 -0.9,0 -1.32,0 -0.03,0 -0.07,0 -0.11,0 -0.22,0 -0.43,0 -0.64,0 -1.01,-0.01 -1.87,-0.03 -2.59,-0.08 -0.18,-0.01 -0.35,-0.03 -0.51,-0.05 -0.29,-0.03 -0.57,-0.09 -0.82,-0.17 0.2,-0.42 0.58,-0.8 1.05,-0.97 0.1,-0.03 0.21,-0.05 0.32,-0.06 0.27,-0.04 1.14,-0.07 2.23,-0.08 0.2,0 0.4,0 0.61,0 0.21,0 0.42,0 0.64,0 0.04,0 0.07,0 0.11,0 0.34,0 0.69,0.01 1.03,0.01 0.27,0.01 0.53,0.02 0.79,0.02 0.08,0.01 0.16,0.01 0.23,0.01 0.25,0.01 0.49,0.02 0.73,0.03 0.13,0.01 0.25,0.02 0.38,0.03 0.08,0 0.17,0.01 0.25,0.01 0.17,0.02 0.32,0.03 0.47,0.04l-0.48 0.03 -0.25 0.01 -0.4 0.02 -0.77 0.04 -0.29 0.01 -0.66 0.04 -0.91 0.04 -0.03 0 -0.79 0.04 -0.6 0.04 -1.71 0.08 1.73 0.05 0.62 0.02 0.92 0.03 0.09 0 0.68 0.02 0.32 0.01 0.42 0.01 0.85 0.03 0.44 0.01 0.26 0.01 2.68 0.08c0,0 0,0 0,0l-2.72 0.07 -0.27 0.01 -0.46 0.02 -1.01 0.02 -0.51 0.02 -0.47 0.01 -1.09 0.03 -0.03 0 -0.62 0.02 -0.78 0.02 0.8 0.06 0.64 0.05 0.06 0 1.49 0.12 1.3 0.09 0.51 0.04 0.28 0.02 0.83 0.06c-0.29,0 -0.57,0 -0.85,-0.01z"></path>
     <path class="fil0" d="M12 23.67c0.05,0.01 0.11,0.03 0.16,0.05 0.51,-0.41 1.2,-0.96 1.88,-1.5 -0.9,-0.14 -1.66,-0.08 -2.04,0.31 -0.44,0.45 -0.37,1.07 0,1.14z"></path>
     <path class="fil0" d="M4.53 27.88c0.14,-0.08 0.26,-0.27 0.31,-0.46 0.01,-0.03 0.02,-0.06 0.02,-0.09 -0.03,-0.01 -0.06,-0.01 -0.09,-0.02 -0.16,0.16 -0.31,0.35 -0.45,0.59 0.11,0 0.19,0 0.21,-0.02z"></path>
     <path class="fil0" d="M5.62 28.33c0.09,0.05 0.36,0.18 1.06,0.24 0.06,0 0.18,-0.08 0.31,-0.19 -0.52,-0.37 -1.3,-0.8 -1.8,-0.97 0,0.14 0,0.25 0.02,0.32 0.04,0.21 0.31,0.56 0.41,0.6z"></path>
     <path class="fil0" d="M18.62 27.73c0.02,-0.07 0.03,-0.21 0.02,-0.36 -0.89,0.16 -1.84,0.59 -2.58,1 0.2,0.11 0.38,0.2 0.47,0.2 0.99,-0.06 1.38,-0.19 1.51,-0.24 0.13,-0.04 0.52,-0.39 0.58,-0.6z"></path>
     <path class="fil0" d="M19.58 27.88c0.09,0.04 0.92,0 1.18,-0.1 0.15,-0.05 0.54,-0.23 0.6,-0.42 0.02,-0.06 0.03,-0.18 0.04,-0.31 -0.56,0 -1.34,0.09 -2.3,0.24 0.01,0.05 0.03,0.09 0.04,0.13 0.07,0.19 0.24,0.38 0.44,0.46z"></path>
    </g>
    <g>
     <path class="fil1" d="M17.58 19.69c-0.26,-0.27 -0.44,-0.61 -0.5,-0.99l-0.22 -1.26 -0.21 1.26c-0.13,0.78 -0.74,1.38 -1.52,1.52l-1.26 0.21 1.26 0.21c0.22,0.04 0.43,0.12 0.62,0.23 0.47,0.27 0.81,0.74 0.9,1.29l0.21 1.26 0.22 -1.26c0.13,-0.77 0.74,-1.38 1.52,-1.52l1.25 -0.21 -1.25 -0.21c-0.4,-0.07 -0.75,-0.26 -1.02,-0.53z"></path>
     <path class="fil1" d="M40.61 17.3c-0.5,-0.08 -0.89,-0.47 -0.97,-0.97l-0.14 -0.81 -0.14 0.81c-0.08,0.5 -0.47,0.89 -0.97,0.97l-0.8 0.14 0.8 0.14c0.5,0.08 0.89,0.47 0.97,0.97l0.14 0.81 0.14 -0.81c0.08,-0.5 0.47,-0.89 0.97,-0.97l0.81 -0.14 -0.81 -0.14z"></path>
     <path class="fil1" d="M33.38 13.24c0.32,0.32 0.26,0.98 -0.1,1.44 -0.5,0.66 -1.18,1 -1.78,0.94l-1.83 -0.23c-0.74,-0.09 -1.51,-1.8 -1.75,-2.53 -0.24,-0.7 -0.76,-2.85 -0.76,-2.85 0,0 -0.52,2.15 -0.76,2.85 -0.25,0.73 -1.02,2.44 -1.75,2.53l-1.83 0.23c-0.61,0.06 -1.28,-0.28 -1.79,-0.94 -0.36,-0.46 -0.41,-1.12 -0.1,-1.44l0.26 -0.27c-0.75,-0.22 -2.21,-0.94 -2.21,-0.94l2 4.08c0.36,0.73 1.11,1.2 1.93,1.2l8.49 0c0.82,0 1.57,-0.47 1.93,-1.2l2.01 -4.08c0,0 -1.46,0.72 -2.22,0.94l0.26 0.27z"></path>
    </g>
   </g>
  </g>
 </g>
</svg></svg></g></g></svg>